<mxfile host="65bd71144e">
    <diagram id="EMnifZ5FvUsjFHzMIhz9" name="Página-1">
        <mxGraphModel dx="2190" dy="944" grid="1" gridSize="10" guides="1" tooltips="1" connect="1" arrows="1" fold="1" page="1" pageScale="1" pageWidth="827" pageHeight="1169" background="none" math="0" shadow="0">
            <root>
                <mxCell id="0"/>
                <mxCell id="1" parent="0"/>
                <mxCell id="29" style="edgeStyle=none;html=1;exitX=0.5;exitY=1;exitDx=0;exitDy=0;entryX=0.5;entryY=0;entryDx=0;entryDy=0;fontFamily=Comic Sans MS;fontColor=#B3B3B3;fillColor=#60a917;strokeColor=#2D7600;" edge="1" parent="1" source="2" target="23">
                    <mxGeometry relative="1" as="geometry"/>
                </mxCell>
                <mxCell id="2" value="" style="whiteSpace=wrap;html=1;" vertex="1" parent="1">
                    <mxGeometry x="54" y="340" width="160" height="80" as="geometry"/>
                </mxCell>
                <mxCell id="12" value="" style="edgeStyle=none;html=1;fontFamily=Comic Sans MS;exitX=1;exitY=0.5;exitDx=0;exitDy=0;fillColor=#60a917;strokeColor=#2D7600;" edge="1" parent="1" source="2" target="5">
                    <mxGeometry relative="1" as="geometry">
                        <mxPoint x="224" y="380" as="sourcePoint"/>
                    </mxGeometry>
                </mxCell>
                <mxCell id="3" value="&lt;font face=&quot;Comic Sans MS&quot;&gt;Dúvidas - Computador&lt;/font&gt;" style="text;strokeColor=none;align=center;fillColor=none;html=1;verticalAlign=middle;whiteSpace=wrap;rounded=0;" vertex="1" parent="1">
                    <mxGeometry x="64" y="355" width="140" height="50" as="geometry"/>
                </mxCell>
                <mxCell id="30" style="edgeStyle=none;html=1;exitX=0.5;exitY=1;exitDx=0;exitDy=0;fontFamily=Comic Sans MS;fontColor=#B3B3B3;fillColor=#60a917;strokeColor=#2D7600;" edge="1" parent="1" source="4">
                    <mxGeometry relative="1" as="geometry">
                        <mxPoint x="394" y="540" as="targetPoint"/>
                    </mxGeometry>
                </mxCell>
                <mxCell id="4" value="" style="whiteSpace=wrap;html=1;" vertex="1" parent="1">
                    <mxGeometry x="244" y="340" width="160" height="80" as="geometry"/>
                </mxCell>
                <mxCell id="13" value="" style="edgeStyle=none;html=1;fontFamily=Comic Sans MS;exitX=1;exitY=0.5;exitDx=0;exitDy=0;fillColor=#60a917;strokeColor=#2D7600;" edge="1" parent="1" source="4" target="9">
                    <mxGeometry relative="1" as="geometry">
                        <mxPoint x="414" y="380" as="sourcePoint"/>
                    </mxGeometry>
                </mxCell>
                <mxCell id="5" value="&lt;font face=&quot;Comic Sans MS&quot;&gt;Dúvidas - Monitor&lt;br&gt;&lt;/font&gt;" style="text;strokeColor=none;align=center;fillColor=none;html=1;verticalAlign=middle;whiteSpace=wrap;rounded=0;" vertex="1" parent="1">
                    <mxGeometry x="254" y="355" width="140" height="50" as="geometry"/>
                </mxCell>
                <mxCell id="15" value="" style="edgeStyle=none;html=1;fontFamily=Comic Sans MS;" edge="1" parent="1" source="8" target="11">
                    <mxGeometry relative="1" as="geometry"/>
                </mxCell>
                <mxCell id="31" style="edgeStyle=none;html=1;exitX=0.5;exitY=1;exitDx=0;exitDy=0;entryX=0.5;entryY=0;entryDx=0;entryDy=0;fontFamily=Comic Sans MS;fontColor=#B3B3B3;fillColor=#60a917;strokeColor=#2D7600;" edge="1" parent="1" source="8" target="23">
                    <mxGeometry relative="1" as="geometry"/>
                </mxCell>
                <mxCell id="8" value="" style="whiteSpace=wrap;html=1;" vertex="1" parent="1">
                    <mxGeometry x="427" y="340" width="160" height="80" as="geometry"/>
                </mxCell>
                <mxCell id="14" value="" style="edgeStyle=none;html=1;fontFamily=Comic Sans MS;exitX=1;exitY=0.5;exitDx=0;exitDy=0;fillColor=#60a917;strokeColor=#2D7600;" edge="1" parent="1" source="8" target="11">
                    <mxGeometry relative="1" as="geometry">
                        <mxPoint x="594" y="380" as="sourcePoint"/>
                    </mxGeometry>
                </mxCell>
                <mxCell id="9" value="&lt;font face=&quot;Comic Sans MS&quot;&gt;Dúvidas - Live&lt;/font&gt;" style="text;strokeColor=none;align=center;fillColor=none;html=1;verticalAlign=middle;whiteSpace=wrap;rounded=0;" vertex="1" parent="1">
                    <mxGeometry x="437" y="355" width="140" height="50" as="geometry"/>
                </mxCell>
                <mxCell id="32" style="edgeStyle=none;html=1;exitX=0.5;exitY=1;exitDx=0;exitDy=0;fontFamily=Comic Sans MS;fontColor=#B3B3B3;fillColor=#60a917;strokeColor=#2D7600;" edge="1" parent="1" source="10">
                    <mxGeometry relative="1" as="geometry">
                        <mxPoint x="394" y="540" as="targetPoint"/>
                    </mxGeometry>
                </mxCell>
                <mxCell id="10" value="" style="whiteSpace=wrap;html=1;" vertex="1" parent="1">
                    <mxGeometry x="614" y="340" width="160" height="80" as="geometry"/>
                </mxCell>
                <mxCell id="11" value="&lt;font face=&quot;Comic Sans MS&quot;&gt;Dúvidas - Interface&lt;/font&gt;" style="text;strokeColor=none;align=center;fillColor=none;html=1;verticalAlign=middle;whiteSpace=wrap;rounded=0;" vertex="1" parent="1">
                    <mxGeometry x="624" y="355" width="140" height="50" as="geometry"/>
                </mxCell>
                <mxCell id="18" value=".txt" style="text;strokeColor=none;align=center;fillColor=none;html=1;verticalAlign=bottom;whiteSpace=wrap;rounded=0;fontFamily=Comic Sans MS;fontStyle=2;fontColor=#B3B3B3;" vertex="1" parent="1">
                    <mxGeometry x="104" y="310" width="60" height="30" as="geometry"/>
                </mxCell>
                <mxCell id="19" value=".txt" style="text;strokeColor=none;align=center;fillColor=none;html=1;verticalAlign=bottom;whiteSpace=wrap;rounded=0;fontFamily=Comic Sans MS;fontStyle=2;fontColor=#B3B3B3;" vertex="1" parent="1">
                    <mxGeometry x="294" y="310" width="60" height="30" as="geometry"/>
                </mxCell>
                <mxCell id="20" value=".txt" style="text;strokeColor=none;align=center;fillColor=none;html=1;verticalAlign=bottom;whiteSpace=wrap;rounded=0;fontFamily=Comic Sans MS;fontStyle=2;fontColor=#B3B3B3;" vertex="1" parent="1">
                    <mxGeometry x="477" y="310" width="60" height="30" as="geometry"/>
                </mxCell>
                <mxCell id="21" value=".txt" style="text;strokeColor=none;align=center;fillColor=none;html=1;verticalAlign=bottom;whiteSpace=wrap;rounded=0;fontFamily=Comic Sans MS;fontStyle=2;fontColor=#B3B3B3;" vertex="1" parent="1">
                    <mxGeometry x="664" y="310" width="60" height="30" as="geometry"/>
                </mxCell>
                <mxCell id="34" style="edgeStyle=none;html=1;exitX=0.5;exitY=1;exitDx=0;exitDy=0;entryX=0.5;entryY=0;entryDx=0;entryDy=0;fontFamily=Comic Sans MS;fontColor=#B3B3B3;fillColor=#60a917;strokeColor=#2D7600;" edge="1" parent="1" source="23" target="27">
                    <mxGeometry relative="1" as="geometry"/>
                </mxCell>
                <mxCell id="38" style="edgeStyle=none;html=1;exitX=1;exitY=0.5;exitDx=0;exitDy=0;fontFamily=Comic Sans MS;fontColor=#000033;" edge="1" parent="1" source="23">
                    <mxGeometry relative="1" as="geometry">
                        <mxPoint x="640" y="580.2857142857144" as="targetPoint"/>
                    </mxGeometry>
                </mxCell>
                <mxCell id="23" value="" style="whiteSpace=wrap;html=1;fillColor=#1ba1e2;fontColor=#ffffff;strokeColor=#006EAF;" vertex="1" parent="1">
                    <mxGeometry x="318" y="540" width="160" height="80" as="geometry"/>
                </mxCell>
                <mxCell id="33" style="edgeStyle=none;html=1;entryX=0.5;entryY=0;entryDx=0;entryDy=0;fontFamily=Comic Sans MS;fontColor=#B3B3B3;exitX=0.5;exitY=1;exitDx=0;exitDy=0;fillColor=#60a917;strokeColor=#2D7600;" edge="1" parent="1" source="23" target="25">
                    <mxGeometry relative="1" as="geometry"/>
                </mxCell>
                <mxCell id="24" value="&lt;font face=&quot;Comic Sans MS&quot;&gt;Aplicação Exe&lt;br&gt;&lt;/font&gt;" style="text;strokeColor=#001DBC;align=center;fillColor=none;html=1;verticalAlign=middle;whiteSpace=wrap;rounded=0;fontColor=#ffffff;" vertex="1" parent="1">
                    <mxGeometry x="328" y="555" width="140" height="50" as="geometry"/>
                </mxCell>
                <mxCell id="27" value="" style="whiteSpace=wrap;html=1;fillColor=#b1ddf0;strokeColor=#10739e;" vertex="1" parent="1">
                    <mxGeometry x="84" y="740" width="160" height="80" as="geometry"/>
                </mxCell>
                <mxCell id="28" value="&lt;font face=&quot;Comic Sans MS&quot;&gt;&lt;font color=&quot;#000033&quot;&gt;Fechar Exe&lt;/font&gt;&lt;br&gt;&lt;/font&gt;" style="text;strokeColor=none;align=center;fillColor=none;html=1;verticalAlign=middle;whiteSpace=wrap;rounded=0;" vertex="1" parent="1">
                    <mxGeometry x="94" y="755" width="140" height="50" as="geometry"/>
                </mxCell>
                <mxCell id="35" value="&lt;font face=&quot;Comic Sans MS&quot;&gt;Solucionado&lt;/font&gt;&lt;span style=&quot;color: rgba(0, 0, 0, 0); font-family: monospace; font-size: 0px; text-align: start;&quot;&gt;%3CmxGraphModel%3E%3Croot%3E%3CmxCell%20id%3D%220%22%2F%3E%3CmxCell%20id%3D%221%22%20parent%3D%220%22%2F%3E%3CmxCell%20id%3D%222%22%20value%3D%22%26lt%3Bfont%20face%3D%26quot%3BComic%20Sans%20MS%26quot%3B%26gt%3BAplica%C3%A7%C3%A3o%20Exe%26lt%3Bbr%26gt%3B%26lt%3B%2Ffont%26gt%3B%22%20style%3D%22text%3BstrokeColor%3Dnone%3Balign%3Dcenter%3BfillColor%3Dnone%3Bhtml%3D1%3BverticalAlign%3Dmiddle%3BwhiteSpace%3Dwrap%3Brounded%3D0%3B%22%20vertex%3D%221%22%20parent%3D%221%22%3E%3CmxGeometry%20x%3D%22344%22%20y%3D%22255%22%20width%3D%22140%22%20height%3D%2250%22%20as%3D%22geometry%22%2F%3E%3C%2FmxCell%3E%3C%2Froot%3E%3C%2FmxGraphModel%3E&lt;/span&gt;&lt;font face=&quot;Comic Sans MS&quot;&gt;&lt;br&gt;&lt;/font&gt;" style="text;strokeColor=none;align=center;fillColor=none;html=1;verticalAlign=middle;whiteSpace=wrap;rounded=0;" vertex="1" parent="1">
                    <mxGeometry x="188" y="640" width="140" height="50" as="geometry"/>
                </mxCell>
                <mxCell id="36" value="&lt;font face=&quot;Comic Sans MS&quot;&gt;Não Solucionado&lt;br&gt;&lt;/font&gt;" style="text;strokeColor=none;align=center;fillColor=none;html=1;verticalAlign=middle;whiteSpace=wrap;rounded=0;" vertex="1" parent="1">
                    <mxGeometry x="484" y="640" width="140" height="50" as="geometry"/>
                </mxCell>
                <mxCell id="37" value="" style="group" vertex="1" connectable="0" parent="1">
                    <mxGeometry x="544" y="740" width="160" height="80" as="geometry"/>
                </mxCell>
                <mxCell id="25" value="" style="whiteSpace=wrap;html=1;fillColor=#6d8764;fontColor=#ffffff;strokeColor=#3A5431;" vertex="1" parent="37">
                    <mxGeometry width="160" height="80" as="geometry"/>
                </mxCell>
                <mxCell id="26" value="&lt;font face=&quot;Comic Sans MS&quot;&gt;Mensagem Wpp&lt;br&gt;&lt;/font&gt;" style="text;strokeColor=none;align=center;fillColor=none;html=1;verticalAlign=middle;whiteSpace=wrap;rounded=0;" vertex="1" parent="37">
                    <mxGeometry x="10" y="15" width="140" height="50" as="geometry"/>
                </mxCell>
                <mxCell id="39" value="" style="shape=datastore;whiteSpace=wrap;html=1;fontFamily=Comic Sans MS;fillColor=#fff2cc;strokeColor=#967d31;gradientColor=#ffd966;" vertex="1" parent="1">
                    <mxGeometry x="644" y="560" width="46" height="45" as="geometry"/>
                </mxCell>
                <mxCell id="40" value="" style="dashed=0;outlineConnect=0;html=1;align=center;labelPosition=center;verticalLabelPosition=bottom;verticalAlign=top;shape=mxgraph.weblogos.whatsapp;fillColor=#00E676;strokeColor=#dddddd;fontFamily=Comic Sans MS;fontColor=#000033;" vertex="1" parent="1">
                    <mxGeometry x="683.8000000000001" y="720" width="20.4" height="20" as="geometry"/>
                </mxCell>
            </root>
        </mxGraphModel>
    </diagram>
</mxfile>